<?xml version="1.0" encoding="iso-8859-1"?>
<!-- Generator: Adobe Illustrator 16.0.0, SVG Export Plug-In . SVG Version: 6.00 Build 0)  -->
<!DOCTYPE svg PUBLIC "-//W3C//DTD SVG 1.1//EN" "http://www.w3.org/Graphics/SVG/1.1/DTD/svg11.dtd">
<svg xmlns="http://www.w3.org/2000/svg" xmlns:xlink="http://www.w3.org/1999/xlink" version="1.1" id="Capa_1" x="0px" y="0px" width="512px" height="512px" viewBox="0 0 554.625 554.625" style="enable-background:new 0 0 554.625 554.625;" xml:space="preserve">
<g>
	<g>
		<path d="M267.75,153h95.625L248.625,19.125v114.75C248.625,145.35,258.188,153,267.75,153z" fill="#933EC5"/>
		<path d="M133.875,401.625V267.75c0-32.513,24.862-57.375,57.375-57.375h172.125v-38.25H267.75c-21.038,0-38.25-17.212-38.25-38.25    V19.125H38.25C17.212,19.125,0,36.337,0,57.375V497.25c0,21.037,17.212,38.25,38.25,38.25h286.875    c21.037,0,38.25-17.213,38.25-38.25V459H191.25C158.737,459,133.875,434.138,133.875,401.625z" fill="#933EC5"/>
		<path d="M248.625,286.875h-38.25v38.25h38.25c11.475,0,19.125-7.65,19.125-19.125S260.1,286.875,248.625,286.875z" fill="#933EC5"/>
		<path d="M478.125,286.875h-38.25v38.25h38.25c11.475,0,19.125-7.65,19.125-19.125S489.6,286.875,478.125,286.875z" fill="#933EC5"/>
		<path d="M516.375,229.5H191.25c-21.038,0-38.25,17.212-38.25,38.25v133.875c0,21.037,17.212,38.25,38.25,38.25h325.125    c21.037,0,38.25-17.213,38.25-38.25V267.75C554.625,246.712,537.412,229.5,516.375,229.5z M248.625,344.25h-38.25v57.375H191.25    V306v-38.25h57.375c21.037,0,38.25,17.213,38.25,38.25S269.662,344.25,248.625,344.25z M401.625,401.625H382.5V344.25h-57.375    v57.375H306V267.75h19.125v57.375H382.5V267.75h19.125V401.625z M478.125,344.25h-38.25v57.375H420.75V306v-38.25h57.375    c21.037,0,38.25,17.213,38.25,38.25S499.162,344.25,478.125,344.25z" fill="#933EC5"/>
	</g>
</g>
<g>
</g>
<g>
</g>
<g>
</g>
<g>
</g>
<g>
</g>
<g>
</g>
<g>
</g>
<g>
</g>
<g>
</g>
<g>
</g>
<g>
</g>
<g>
</g>
<g>
</g>
<g>
</g>
<g>
</g>
</svg>
